<svg width="80" height="80" viewBox="0 0 80 80" fill="none" xmlns="http://www.w3.org/2000/svg">
<g filter="url(#filter0_d_20005153_1471)">
<rect x="4" width="72" height="72" rx="8" fill="#F3F6FF" shape-rendering="crispEdges"/>
<path d="M24.9527 29.2449C25.491 26.2442 26.8618 23.5238 28.9171 21.378C29.514 20.7548 29.4928 19.7657 28.8695 19.1688C28.2462 18.5717 27.2572 18.5932 26.6604 19.2164C24.1781 21.808 22.524 25.085 21.8769 28.6932C21.7245 29.5426 22.2895 30.3547 23.1389 30.507C23.2323 30.5237 23.325 30.5318 23.4166 30.5318C24.1587 30.5318 24.8172 30.0009 24.9527 29.2449Z" fill="#D946EF"/>
<path d="M55.5883 42.234C55.5016 42.2001 54.2829 41.7089 53.3871 40.5822C52.8501 39.9067 51.8672 39.7946 51.1916 40.3316C50.5161 40.8687 50.4039 41.8516 50.9409 42.5271C51.7487 43.543 52.688 44.2187 53.4052 44.6337C53.2853 45.3067 53.0321 46.0588 52.5891 46.6971C51.8934 47.7 50.9107 48.1875 49.5852 48.1875H30.5243C28.1077 48.1875 27.0295 46.1627 26.7177 44.6255C27.1788 44.3585 27.7324 43.9855 28.2873 43.4862C30.0568 41.8942 30.9922 39.7918 30.9922 37.4062V31.9375C30.9922 27.0069 34.989 22.9418 39.9018 22.8759C39.9154 22.8757 39.9286 22.8738 39.9421 22.8733C39.9537 22.8735 39.9649 22.875 39.9766 22.875C40.0177 22.875 40.0582 22.872 40.0986 22.8688C40.1348 22.8718 40.1708 22.8753 40.2076 22.8758C45.1634 22.9423 49.1953 27.0074 49.1953 31.9375V34.125C49.1953 34.988 49.8948 35.6875 50.7578 35.6875C51.6208 35.6875 52.3203 34.988 52.3203 34.125V31.9375C52.3203 25.7412 47.5908 20.5616 41.5391 19.8372V17.5625C41.5391 16.6995 40.8395 16 39.9766 16C39.1136 16 38.4141 16.6995 38.4141 17.5625V19.8566C35.7535 20.2098 33.294 21.4341 31.3745 23.3855C29.1128 25.6847 27.8672 28.7219 27.8672 31.9375V37.4062C27.8672 40.8955 24.7235 42.1566 24.5209 42.2341C23.893 42.4524 23.4922 43.0374 23.4922 43.7027C23.4922 45.3426 24.0764 47.1355 25.0549 48.499C26.3572 50.3133 28.2997 51.3125 30.5243 51.3125H35.3672C35.3672 53.8972 37.47 56 40.0547 56C42.6394 56 44.7422 53.8972 44.7422 51.3125H49.5851C52.5649 51.3125 54.2597 49.7713 55.1566 48.4786C56.4748 46.5788 56.6171 44.5057 56.6171 43.7027C56.6172 43.0371 56.2164 42.4522 55.5883 42.234ZM40.0547 52.875C39.1931 52.875 38.4922 52.1741 38.4922 51.3125H41.6172C41.6172 52.1741 40.9163 52.875 40.0547 52.875Z" fill="#6366F1"/>
<path d="M58.1234 28.7404C57.4701 25.0987 55.7528 21.6869 53.2877 19.1332C52.6884 18.5123 51.6993 18.4949 51.0784 19.0942C50.4575 19.6936 50.4401 20.6827 51.0394 21.3036C53.079 23.4165 54.5024 26.2535 55.0475 29.2922C55.1831 30.0483 55.8415 30.579 56.5836 30.579C56.6752 30.579 56.7681 30.571 56.8613 30.5543C57.7107 30.4019 58.2758 29.5898 58.1234 28.7404Z" fill="#D946EF"/>
</g>
<defs>
<filter id="filter0_d_20005153_1471" x="0" y="0" width="80" height="80" filterUnits="userSpaceOnUse" color-interpolation-filters="sRGB">
<feFlood flood-opacity="0" result="BackgroundImageFix"/>
<feColorMatrix in="SourceAlpha" type="matrix" values="0 0 0 0 0 0 0 0 0 0 0 0 0 0 0 0 0 0 127 0" result="hardAlpha"/>
<feOffset dy="4"/>
<feGaussianBlur stdDeviation="2"/>
<feComposite in2="hardAlpha" operator="out"/>
<feColorMatrix type="matrix" values="0 0 0 0 0 0 0 0 0 0 0 0 0 0 0 0 0 0 0.25 0"/>
<feBlend mode="normal" in2="BackgroundImageFix" result="effect1_dropShadow_20005153_1471"/>
<feBlend mode="normal" in="SourceGraphic" in2="effect1_dropShadow_20005153_1471" result="shape"/>
</filter>
</defs>
</svg>
